<?xml version="1.0" encoding="UTF-8"?>
<svg xmlns="http://www.w3.org/2000/svg" width="800" height="600" viewBox="0 0 800 600" fill="none">
  <rect width="800" height="600" fill="#F9FAFB"/>
  
  <!-- Background Elements -->
  <circle cx="400" cy="300" r="250" fill="#0EA5E9" opacity="0.05"/>
  <circle cx="400" cy="300" r="200" fill="#0EA5E9" opacity="0.1"/>
  
  <!-- Circuit Board Pattern -->
  <path d="M200 100 L280 100 L280 120 L320 120 L320 180 L370 180 L370 230 L450 230 L450 150 L500 150 L500 200 L600 200 L600 300 L550 300 L550 350 L480 350 L480 400 L400 400 L400 450 L350 450 L350 500 L250 500 L250 450 L200 450 L200 400 L150 400 L150 300 L200 300 L200 100" 
        stroke="#0EA5E9" stroke-width="2" fill="none" stroke-opacity="0.5"/>
  
  <!-- Circuit Nodes -->
  <circle cx="200" cy="100" r="5" fill="#0EA5E9"/>
  <circle cx="280" cy="100" r="5" fill="#0EA5E9"/>
  <circle cx="280" cy="120" r="5" fill="#0EA5E9"/>
  <circle cx="320" cy="120" r="5" fill="#0EA5E9"/>
  <circle cx="320" cy="180" r="5" fill="#0EA5E9"/>
  <circle cx="370" cy="180" r="5" fill="#0EA5E9"/>
  <circle cx="370" cy="230" r="5" fill="#0EA5E9"/>
  <circle cx="450" cy="230" r="5" fill="#0EA5E9"/>
  <circle cx="450" cy="150" r="5" fill="#0EA5E9"/>
  <circle cx="500" cy="150" r="5" fill="#0EA5E9"/>
  <circle cx="500" cy="200" r="5" fill="#0EA5E9"/>
  <circle cx="600" cy="200" r="5" fill="#0EA5E9"/>
  <circle cx="600" cy="300" r="5" fill="#0EA5E9"/>
  <circle cx="550" cy="300" r="5" fill="#0EA5E9"/>
  <circle cx="550" cy="350" r="5" fill="#0EA5E9"/>
  <circle cx="480" cy="350" r="5" fill="#0EA5E9"/>
  <circle cx="480" cy="400" r="5" fill="#0EA5E9"/>
  <circle cx="400" cy="400" r="5" fill="#0EA5E9"/>
  <circle cx="400" cy="450" r="5" fill="#0EA5E9"/>
  <circle cx="350" cy="450" r="5" fill="#0EA5E9"/>
  <circle cx="350" cy="500" r="5" fill="#0EA5E9"/>
  <circle cx="250" cy="500" r="5" fill="#0EA5E9"/>
  <circle cx="250" cy="450" r="5" fill="#0EA5E9"/>
  <circle cx="200" cy="450" r="5" fill="#0EA5E9"/>
  <circle cx="200" cy="400" r="5" fill="#0EA5E9"/>
  <circle cx="150" cy="400" r="5" fill="#0EA5E9"/>
  <circle cx="150" cy="300" r="5" fill="#0EA5E9"/>
  <circle cx="200" cy="300" r="5" fill="#0EA5E9"/>
  
  <!-- Brain Outline -->
  <path d="M400 180 C460 180, 500 150, 500 100 C500 70, 480 50, 450 50 C430 50, 410 60, 400 80 C390 60, 370 50, 350 50 C320 50, 300 70, 300 100 C300 150, 340 180, 400 180Z"
        stroke="#0EA5E9" stroke-width="3" fill="none"/>
  
  <!-- Neural Network -->
  <circle cx="330" cy="240" r="10" fill="#0EA5E9" opacity="0.6"/>
  <circle cx="380" cy="240" r="10" fill="#0EA5E9" opacity="0.6"/>
  <circle cx="430" cy="240" r="10" fill="#0EA5E9" opacity="0.6"/>
  <circle cx="480" cy="240" r="10" fill="#0EA5E9" opacity="0.6"/>
  
  <circle cx="350" cy="290" r="10" fill="#0EA5E9" opacity="0.6"/>
  <circle cx="400" cy="290" r="10" fill="#0EA5E9" opacity="0.6"/>
  <circle cx="450" cy="290" r="10" fill="#0EA5E9" opacity="0.6"/>
  
  <circle cx="300" cy="340" r="10" fill="#0EA5E9" opacity="0.6"/>
  <circle cx="375" cy="340" r="10" fill="#0EA5E9" opacity="0.6"/>
  <circle cx="450" cy="340" r="10" fill="#0EA5E9" opacity="0.6"/>
  <circle cx="525" cy="340" r="10" fill="#0EA5E9" opacity="0.6"/>
  
  <!-- Neural Connections -->
  <line x1="330" y1="240" x2="350" y2="290" stroke="#0EA5E9" stroke-width="1.5" opacity="0.4"/>
  <line x1="330" y1="240" x2="400" y2="290" stroke="#0EA5E9" stroke-width="1.5" opacity="0.4"/>
  <line x1="330" y1="240" x2="450" y2="290" stroke="#0EA5E9" stroke-width="1.5" opacity="0.4"/>
  
  <line x1="380" y1="240" x2="350" y2="290" stroke="#0EA5E9" stroke-width="1.5" opacity="0.4"/>
  <line x1="380" y1="240" x2="400" y2="290" stroke="#0EA5E9" stroke-width="1.5" opacity="0.4"/>
  <line x1="380" y1="240" x2="450" y2="290" stroke="#0EA5E9" stroke-width="1.5" opacity="0.4"/>
  
  <line x1="430" y1="240" x2="350" y2="290" stroke="#0EA5E9" stroke-width="1.5" opacity="0.4"/>
  <line x1="430" y1="240" x2="400" y2="290" stroke="#0EA5E9" stroke-width="1.5" opacity="0.4"/>
  <line x1="430" y1="240" x2="450" y2="290" stroke="#0EA5E9" stroke-width="1.5" opacity="0.4"/>
  
  <line x1="480" y1="240" x2="350" y2="290" stroke="#0EA5E9" stroke-width="1.5" opacity="0.4"/>
  <line x1="480" y1="240" x2="400" y2="290" stroke="#0EA5E9" stroke-width="1.5" opacity="0.4"/>
  <line x1="480" y1="240" x2="450" y2="290" stroke="#0EA5E9" stroke-width="1.5" opacity="0.4"/>
  
  <line x1="350" y1="290" x2="300" y2="340" stroke="#0EA5E9" stroke-width="1.5" opacity="0.4"/>
  <line x1="350" y1="290" x2="375" y2="340" stroke="#0EA5E9" stroke-width="1.5" opacity="0.4"/>
  <line x1="350" y1="290" x2="450" y2="340" stroke="#0EA5E9" stroke-width="1.5" opacity="0.4"/>
  <line x1="350" y1="290" x2="525" y2="340" stroke="#0EA5E9" stroke-width="1.5" opacity="0.4"/>
  
  <line x1="400" y1="290" x2="300" y2="340" stroke="#0EA5E9" stroke-width="1.5" opacity="0.4"/>
  <line x1="400" y1="290" x2="375" y2="340" stroke="#0EA5E9" stroke-width="1.5" opacity="0.4"/>
  <line x1="400" y1="290" x2="450" y2="340" stroke="#0EA5E9" stroke-width="1.5" opacity="0.4"/>
  <line x1="400" y1="290" x2="525" y2="340" stroke="#0EA5E9" stroke-width="1.5" opacity="0.4"/>
  
  <line x1="450" y1="290" x2="300" y2="340" stroke="#0EA5E9" stroke-width="1.5" opacity="0.4"/>
  <line x1="450" y1="290" x2="375" y2="340" stroke="#0EA5E9" stroke-width="1.5" opacity="0.4"/>
  <line x1="450" y1="290" x2="450" y2="340" stroke="#0EA5E9" stroke-width="1.5" opacity="0.4"/>
  <line x1="450" y1="290" x2="525" y2="340" stroke="#0EA5E9" stroke-width="1.5" opacity="0.4"/>
  
  <!-- Data Flow Visualization -->
  <path d="M250 400 C300 430, 350 370, 400 400 C450 430, 500 370, 550 400" 
        stroke="#0EA5E9" stroke-width="2" fill="none" stroke-dasharray="5,3"/>
  
  <!-- Data Points -->
  <circle cx="280" cy="410" r="3" fill="#0EA5E9"/>
  <circle cx="310" cy="390" r="3" fill="#0EA5E9"/>
  <circle cx="340" cy="420" r="3" fill="#0EA5E9"/>
  <circle cx="370" cy="380" r="3" fill="#0EA5E9"/>
  <circle cx="400" cy="400" r="3" fill="#0EA5E9"/>
  <circle cx="430" cy="420" r="3" fill="#0EA5E9"/>
  <circle cx="460" cy="390" r="3" fill="#0EA5E9"/>
  <circle cx="490" cy="410" r="3" fill="#0EA5E9"/>
  <circle cx="520" cy="380" r="3" fill="#0EA5E9"/>
  
  <!-- Binary Code -->
  <text x="200" y="480" font-family="monospace" font-size="12" fill="#0EA5E9">01001101 01001100</text>
  <text x="410" y="480" font-family="monospace" font-size="12" fill="#0EA5E9">10100110 01010101</text>
  <text x="300" y="500" font-family="monospace" font-size="12" fill="#0EA5E9">00101010 11100100</text>
  <text x="450" y="460" font-family="monospace" font-size="12" fill="#0EA5E9">11001010 01110101</text>
</svg>