<?xml version="1.0" encoding="UTF-8"?>
<svg xmlns="http://www.w3.org/2000/svg" width="800" height="600" viewBox="0 0 800 600" fill="none">
  <rect width="800" height="600" fill="#F9FAFB"/>
  <circle cx="400" cy="300" r="150" fill="#3B82F6" opacity="0.1"/>
  <circle cx="400" cy="300" r="120" fill="#3B82F6" opacity="0.15"/>
  <circle cx="400" cy="300" r="90" fill="#3B82F6" opacity="0.2"/>
  
  <!-- Neural Network Nodes -->
  <!-- Layer 1 -->
  <circle cx="250" cy="200" r="18" fill="#3B82F6"/>
  <circle cx="250" cy="300" r="18" fill="#3B82F6"/>
  <circle cx="250" cy="400" r="18" fill="#3B82F6"/>
  
  <!-- Layer 2 -->
  <circle cx="400" cy="150" r="18" fill="#3B82F6"/>
  <circle cx="400" cy="250" r="18" fill="#3B82F6"/>
  <circle cx="400" cy="350" r="18" fill="#3B82F6"/>
  <circle cx="400" cy="450" r="18" fill="#3B82F6"/>
  
  <!-- Layer 3 -->
  <circle cx="550" cy="200" r="18" fill="#3B82F6"/>
  <circle cx="550" cy="300" r="18" fill="#3B82F6"/>
  <circle cx="550" cy="400" r="18" fill="#3B82F6"/>
  
  <!-- Neural Network Lines -->
  <!-- Connections from Layer 1 to 2 -->
  <line x1="268" y1="200" x2="382" y2="150" stroke="#3B82F6" stroke-width="2" opacity="0.6"/>
  <line x1="268" y1="200" x2="382" y2="250" stroke="#3B82F6" stroke-width="2" opacity="0.6"/>
  <line x1="268" y1="200" x2="382" y2="350" stroke="#3B82F6" stroke-width="2" opacity="0.6"/>
  <line x1="268" y1="200" x2="382" y2="450" stroke="#3B82F6" stroke-width="2" opacity="0.6"/>
  
  <line x1="268" y1="300" x2="382" y2="150" stroke="#3B82F6" stroke-width="2" opacity="0.6"/>
  <line x1="268" y1="300" x2="382" y2="250" stroke="#3B82F6" stroke-width="2" opacity="0.6"/>
  <line x1="268" y1="300" x2="382" y2="350" stroke="#3B82F6" stroke-width="2" opacity="0.6"/>
  <line x1="268" y1="300" x2="382" y2="450" stroke="#3B82F6" stroke-width="2" opacity="0.6"/>
  
  <line x1="268" y1="400" x2="382" y2="150" stroke="#3B82F6" stroke-width="2" opacity="0.6"/>
  <line x1="268" y1="400" x2="382" y2="250" stroke="#3B82F6" stroke-width="2" opacity="0.6"/>
  <line x1="268" y1="400" x2="382" y2="350" stroke="#3B82F6" stroke-width="2" opacity="0.6"/>
  <line x1="268" y1="400" x2="382" y2="450" stroke="#3B82F6" stroke-width="2" opacity="0.6"/>
  
  <!-- Connections from Layer 2 to 3 -->
  <line x1="418" y1="150" x2="532" y2="200" stroke="#3B82F6" stroke-width="2" opacity="0.6"/>
  <line x1="418" y1="150" x2="532" y2="300" stroke="#3B82F6" stroke-width="2" opacity="0.6"/>
  <line x1="418" y1="150" x2="532" y2="400" stroke="#3B82F6" stroke-width="2" opacity="0.6"/>
  
  <line x1="418" y1="250" x2="532" y2="200" stroke="#3B82F6" stroke-width="2" opacity="0.6"/>
  <line x1="418" y1="250" x2="532" y2="300" stroke="#3B82F6" stroke-width="2" opacity="0.6"/>
  <line x1="418" y1="250" x2="532" y2="400" stroke="#3B82F6" stroke-width="2" opacity="0.6"/>
  
  <line x1="418" y1="350" x2="532" y2="200" stroke="#3B82F6" stroke-width="2" opacity="0.6"/>
  <line x1="418" y1="350" x2="532" y2="300" stroke="#3B82F6" stroke-width="2" opacity="0.6"/>
  <line x1="418" y1="350" x2="532" y2="400" stroke="#3B82F6" stroke-width="2" opacity="0.6"/>
  
  <line x1="418" y1="450" x2="532" y2="200" stroke="#3B82F6" stroke-width="2" opacity="0.6"/>
  <line x1="418" y1="450" x2="532" y2="300" stroke="#3B82F6" stroke-width="2" opacity="0.6"/>
  <line x1="418" y1="450" x2="532" y2="400" stroke="#3B82F6" stroke-width="2" opacity="0.6"/>
  
  <!-- Small Data Icons -->
  <rect x="200" y="480" width="40" height="25" rx="3" fill="#3B82F6" opacity="0.8"/>
  <rect x="200" y="510" width="25" height="10" rx="2" fill="#3B82F6" opacity="0.6"/>
  
  <rect x="260" y="490" width="40" height="25" rx="3" fill="#3B82F6" opacity="0.8"/>
  <rect x="260" y="520" width="25" height="10" rx="2" fill="#3B82F6" opacity="0.6"/>
  
  <rect x="320" y="470" width="40" height="25" rx="3" fill="#3B82F6" opacity="0.8"/>
  <rect x="320" y="500" width="25" height="10" rx="2" fill="#3B82F6" opacity="0.6"/>
  
  <rect x="380" y="485" width="40" height="25" rx="3" fill="#3B82F6" opacity="0.8"/>
  <rect x="380" y="515" width="25" height="10" rx="2" fill="#3B82F6" opacity="0.6"/>
  
  <rect x="440" y="475" width="40" height="25" rx="3" fill="#3B82F6" opacity="0.8"/>
  <rect x="440" y="505" width="25" height="10" rx="2" fill="#3B82F6" opacity="0.6"/>
  
  <rect x="500" y="490" width="40" height="25" rx="3" fill="#3B82F6" opacity="0.8"/>
  <rect x="500" y="520" width="25" height="10" rx="2" fill="#3B82F6" opacity="0.6"/>
  
  <rect x="560" y="480" width="40" height="25" rx="3" fill="#3B82F6" opacity="0.8"/>
  <rect x="560" y="510" width="25" height="10" rx="2" fill="#3B82F6" opacity="0.6"/>
</svg>